<svg width="16" height="16" viewBox="0 0 16 16" fill="none" xmlns="http://www.w3.org/2000/svg">
<g clip-path="url(#clip0_225_754)">
<path d="M12.2 3.80714C11.94 3.54714 11.52 3.54714 11.26 3.80714L8.00001 7.06047L4.74001 3.80047C4.48001 3.54047 4.06001 3.54047 3.80001 3.80047C3.54001 4.06047 3.54001 4.48047 3.80001 4.74047L7.06001 8.00047L3.80001 11.2605C3.54001 11.5205 3.54001 11.9405 3.80001 12.2005C4.06001 12.4605 4.48001 12.4605 4.74001 12.2005L8.00001 8.94047L11.26 12.2005C11.52 12.4605 11.94 12.4605 12.2 12.2005C12.46 11.9405 12.46 11.5205 12.2 11.2605L8.94001 8.00047L12.2 4.74047C12.4533 4.48714 12.4533 4.06047 12.2 3.80714Z" fill="#231E60"/>
</g>
<defs>
<clipPath id="clip0_225_754">
<rect width="16" height="16" fill="white"/>
</clipPath>
</defs>
</svg>
