<svg width="18" height="18" viewBox="0 0 18 18" fill="none" xmlns="http://www.w3.org/2000/svg">
<mask id="mask0_407_214" style="mask-type:alpha" maskUnits="userSpaceOnUse" x="0" y="0" width="18" height="18">
<rect width="18" height="18" fill="#D9D9D9"/>
</mask>
<g mask="url(#mask0_407_214)">
<path d="M4.92504 8.97677C4.92579 8.87677 4.94315 8.78523 4.97711 8.70215C5.01107 8.61907 5.07002 8.53618 5.15398 8.45348L10.141 3.54082C10.2754 3.40849 10.455 3.34734 10.6799 3.35737C10.9049 3.36739 11.0835 3.43957 11.2158 3.5739C11.3812 3.74181 11.4507 3.92151 11.4243 4.11298C11.3978 4.30446 11.3174 4.47469 11.1829 4.62368L6.74999 8.99049L11.1168 13.4234C11.2491 13.5578 11.3228 13.7375 11.3377 13.9626C11.3527 14.1877 11.2764 14.3663 11.1087 14.4984C10.9741 14.6641 10.7986 14.7336 10.5821 14.707C10.3657 14.6803 10.1829 14.5998 10.0339 14.4653L5.14609 9.50345C5.06338 9.41949 5.00568 9.33572 4.97297 9.25214C4.94027 9.16856 4.92429 9.07677 4.92504 8.97677V8.97677Z" fill="#636363"/>
</g>
</svg>
