<svg width="18" height="18" viewBox="0 0 18 18" fill="none" xmlns="http://www.w3.org/2000/svg">
<mask id="mask0_407_215" style="mask-type:alpha" maskUnits="userSpaceOnUse" x="0" y="0" width="18" height="18">
<rect x="18" y="18" width="18" height="18" transform="rotate(-180 18 18)" fill="#D9D9D9"/>
</mask>
<g mask="url(#mask0_407_215)">
<path d="M13.075 9.02323C13.0742 9.12323 13.0569 9.21477 13.0229 9.29785C12.9889 9.38093 12.93 9.46382 12.846 9.54652L7.85895 14.4592C7.72462 14.5915 7.54499 14.6527 7.32006 14.6426C7.09513 14.6326 6.9165 14.5604 6.78417 14.4261C6.61876 14.2582 6.54928 14.0785 6.57572 13.887C6.60216 13.6955 6.68261 13.5253 6.81706 13.3763L11.25 9.00951L6.88321 4.57657C6.75088 4.44223 6.67723 4.26251 6.66225 4.03739C6.64728 3.81227 6.72362 3.63367 6.89129 3.5016C7.02587 3.33594 7.2014 3.26642 7.41787 3.29305C7.63434 3.31968 7.81707 3.40022 7.96607 3.53467L12.8539 8.49655C12.9366 8.58051 12.9943 8.66428 13.027 8.74786C13.0597 8.83144 13.0757 8.92323 13.075 9.02323V9.02323Z" fill="#636363"/>
</g>
</svg>
